<svg xmlns="http://www.w3.org/2000/svg" viewBox="0 0 167.81 156.6"><defs><style>.cls-1{fill:#ecedeb;}.cls-2{fill:#706f8e;}.cls-3{fill:#393762;}.cls-4{fill:#eaa888;}.cls-5{fill:#da5955;}.cls-6{fill:#f6ba99;}.cls-7{fill:#7eb9f5;}.cls-8{fill:#ecb393;}</style></defs><g id="Layer_2" data-name="Layer 2"><g id="Objects"><ellipse class="cls-1" cx="79.64" cy="136.27" rx="79.64" ry="15.85"/><circle class="cls-2" cx="32.19" cy="93.44" r="30.78" transform="translate(-56.64 50.13) rotate(-45)"/><circle class="cls-3" cx="34.88" cy="94.42" r="30.78" transform="translate(-56.55 52.32) rotate(-45)"/><circle class="cls-2" cx="34.88" cy="94.42" r="12.21"/><path class="cls-4" d="M82.52,62.37S65.94,68.83,57,75.57s-4.84,12.92-3.38,16.59,12.48,28.32,12.48,28.32a9.31,9.31,0,0,1-2.65,3.37c-1.76,1.32-8.51,4.11-9.24,5.43s4.7,2.2,7.78,2.2,11.44-1.47,14.38-1.61,2.2-3.38,1.76-4.41-2.64-5.72-3.08-8.21S72,105.66,71.37,100.52,67.55,87,67.55,87a135.53,135.53,0,0,1,20.69-7.78c9.69-2.49,21.28-13.2,21.43-13.64s-3.09-4.55-9.25-4.85S85.45,60.46,82.52,62.37Z"/><path class="cls-5" d="M66.09,120.48a9.31,9.31,0,0,1-2.65,3.37c-1.76,1.32-8.51,4.11-9.24,5.43s4.7,2.2,7.78,2.2,11.44-1.47,14.38-1.61,2.2-3.38,1.76-4.41c-.16-.37-.56-1.24-1-2.32H70.82C69.11,119.28,66.09,120.48,66.09,120.48Z"/><path class="cls-5" d="M56.11,33.32s-3.38,2.78-3.23,4.1,4.7,17.76,5.28,21,7.93,5.13,11.74,5.13,5.28-.58,9.83,0,17.76,3.52,17.76,3.52,22,6.9,28.61,5.29,9.1-9.83,6.31-18-7.34-12.62-14.23-12.62-11.16,5.43-17,2.64-9.1-5.87-13.5-9.54-11.45-8.36-16.14-8.65-6.9-.3-6.9-.3S57.14,30.38,56.11,33.32Z"/><path class="cls-6" d="M49.8.59a11.06,11.06,0,0,0-8.66,6.75c-2.49,6.17-1.47,9.69-.59,10.57s0,5,0,5.87,2.21,1.91,2.21,1.91,2.34,4.4,3.08,4.84,2.49-.3,3.67-.44a8.6,8.6,0,0,0,1.9-.44l5.28,6s.59,11,3.38,13.94,2.93.15,2.49-3.67,1-11.44,1.62-14.23A54.58,54.58,0,0,1,65.79,26s-2.93-1.76-3.23-4.11A11.48,11.48,0,0,1,63.89,15c1-1.46.14-7.63-2.06-12S52,.3,49.8.59Z"/><path class="cls-3" d="M68.58,2.5a8.87,8.87,0,0,0-6.39,1.21c-.11-.26-.23-.52-.36-.77C59.63-1.46,52,.3,49.8.59a11.06,11.06,0,0,0-8.66,6.75c-.2.51-.38,1-.54,1.46a10.28,10.28,0,0,1,6.85-1.9c4.84.44,1.91,6.17,3.67,7.19s.59-2.64,4.25-1.9,2.94,4.69,1.62,5.28a11,11,0,0,0-1.91,1s3.08,2.64,5.87,2.64a3.93,3.93,0,0,0,1.55-.39,13.13,13.13,0,0,1,.62-4.16,1.75,1.75,0,0,0,.47.44c2.5,1.47,7,.59,7.63-1.76S72.69,3.24,68.58,2.5Z"/><path class="cls-6" d="M76.36,28.47s-2.94-.44-6.61,5.58a12.71,12.71,0,0,0,4.7,17.46c6,3.23,17.17-5.43,17.31-8.22S90.15,33.46,76.36,28.47Z"/><path class="cls-3" d="M122.54,122.65a1.82,1.82,0,0,1-.52-.08L35.43,95.12a1.7,1.7,0,1,1,1-3.24l86.6,27.45a1.7,1.7,0,0,1-.51,3.32Z"/><path class="cls-7" d="M132.41,54.3c-2.25-6.62-5.64-10.76-10.47-12.12.09,3.1-.12,7.73-1.71,11.53C117.59,60,107.76,65.3,102.48,67.65l-1.19.54c6.59,1.88,19.92,5.35,24.81,4.16C132.7,70.73,135.2,62.52,132.41,54.3Z"/><path class="cls-7" d="M123.46,53.12S107.9,56.79,96.9,64.72C90.71,69.18,84.5,78.48,87,86.41c1.71,5.41,2.81,11,4,16.56q2.76,13.14,5.33,26.31a61.41,61.41,0,0,0-7,4.11c-2.35,1.76-7.92,2.93-6.31,5s17.61.58,20.25.14,4.4-1.61,4.55-2.49-2.89-7.81-3.23-9.83c-.29-1.76-2.35-7.34-2.64-22.75-.07-3.71.59-10-.59-12.91s-2.2-5.43-2.2-5.43,22.16-8.21,28.61-12.91,7-12.33,4.7-16.87"/><path class="cls-8" d="M128.16,71.84a19.19,19.19,0,0,0-5.43-8.3c-3.7-3.4-8.77-5-12.89-5.85a66,66,0,0,0-12.94,7C90.71,69.18,84.5,78.48,87,86.41c1.71,5.41,2.81,11,4,16.56q2.76,13.14,5.33,26.31a61.41,61.41,0,0,0-7,4.11c-2.35,1.76-7.92,2.93-6.31,5s17.61.58,20.25.14,4.4-1.61,4.55-2.49-2.89-7.81-3.23-9.83c-.29-1.76-2.35-7.34-2.64-22.75-.07-3.71.59-10-.59-12.91s-2.2-5.43-2.2-5.43,22.16-8.21,28.61-12.91C127.87,72.09,128,72,128.16,71.84Z"/><path class="cls-6" d="M103.21,138.52c2.64-.44,4.4-1.61,4.55-2.49s-2.89-7.81-3.23-9.83c-.07-.44-.25-1.11-.49-2.1a13.39,13.39,0,0,1-3.18.48,14.51,14.51,0,0,1-5.66-.86c.37,1.85.75,3.7,1.11,5.56a61.41,61.41,0,0,0-7,4.11c-2.35,1.76-7.92,2.93-6.31,5S100.57,139,103.21,138.52Z"/><path class="cls-5" d="M100.42,129.87c-.88-2.06-4.11-.59-4.11-.59a61.41,61.41,0,0,0-7,4.11c-2.35,1.76-7.92,2.93-6.31,5s17.61.58,20.25.14,4.4-1.61,4.55-2.49c.08-.48-.77-2.72-1.63-5a9.41,9.41,0,0,1-3.95,1.18C99.1,132.21,101.3,131.92,100.42,129.87Z"/><path class="cls-4" d="M53.94,98.5a2.29,2.29,0,0,1,1.8-1.35l.09-.15-1.07-2.46c-1.44-1.33-2.94-1.78-3.37-2.49-.2-.34-.06-2.31.41-4.82-.87-3.12-.75-6.91,3.69-11a51.58,51.58,0,0,0,3.62-14.93c0-.38,0-.83.07-1.22a3.1,3.1,0,0,1-1-1.63c-.54-3-4.26-17.85-5.14-21.62C52,38.28,49.79,41.46,49.45,44c-.45,3.29.45,8.24.89,11.09S49.9,66.58,49,69.42s-2.25,9.14-2,12.14S45.7,95.35,45.4,97s.6,3,2.25,4.19,4.19,3.15,5.54,2.85,1.8-2.55,1.8-3S53.49,99.69,53.94,98.5Z"/><circle class="cls-2" cx="129.04" cy="119.81" r="35.66" transform="translate(-20.63 27.05) rotate(-11.08)"/><circle class="cls-3" cx="132.16" cy="120.95" r="35.66" transform="translate(-25.1 35.13) rotate(-13.84)"/><circle class="cls-2" cx="132.16" cy="120.95" r="14.15"/><path class="cls-3" d="M135.27,121a3.12,3.12,0,1,0-3.11,3.11A3.12,3.12,0,0,0,135.27,121Z"/><path class="cls-6" d="M71.81,34.2s-4.11,1.61-3.38,9.39,4.85,12.62,6.17,17.16,0,10.72,3.52,16.59,8.07,25.09,8.07,25.82-4.26,3.08-4.26,4.26-.14,5.87,1.18,6.6,5.43,1.61,6.75,1.32.73-2,.73-2.94,2.49-.88,3.23-.73,1.32-2.64.29-5.57S90,80.86,89.12,76s-.73-15.12-2.64-18.64-4.11-7.92-4.25-10.56-.44-6-.44-6"/></g></g></svg>