<svg xmlns="http://www.w3.org/2000/svg" viewBox="0 0 280.04 147.06"><defs><style>.cls-1{fill:#ecedeb;}.cls-2{fill:#eaa888;}.cls-3{fill:#7eb9f5;}.cls-4{fill:#393762;}.cls-5{fill:#706f8e;}.cls-6{fill:#f6ba99;}.cls-7{fill:#da5955;}</style></defs><g id="Layer_2" data-name="Layer 2"><g id="Objects"><ellipse class="cls-1" cx="134.24" cy="138.05" rx="125.27" ry="9.01"/><path class="cls-2" d="M183.85,134.12c-2.35-2.94-10.6-10.6-10.6-12a7.66,7.66,0,0,0-.39-2.56c-.19-.78,4.71-12,4.91-16.29S174.83,90.74,174.83,89s1.17-14.33.39-21-15.31-20.61-15.31-20.61l-21.27,3.86-21.26-3.86S102.85,61.29,102.07,68s.39,19.24.39,21-3.14,10-2.94,14.33,5.1,15.51,4.9,16.29a7.92,7.92,0,0,0-.39,2.56c0,1.37-8.24,9-10.6,12s-2.55,4.32,2,4.32,15.9-3.34,16.49-4.71,1-11.58,1-14.33,5.7-18.45,4.71-22.18-1.37-12.57-.39-14.53S127,70.32,130.73,68.56c3.54-1.68,5.84-3,7.91-3.12,2.08.13,4.38,1.44,7.92,3.12,3.73,1.76,12.56,12.17,13.54,14.13s.59,10.8-.39,14.53,4.71,19.43,4.71,22.18.39,12.95,1,14.33,12,4.71,16.49,4.71S186.21,137.06,183.85,134.12Z"/><path class="cls-3" d="M173.69,63.9c-3.91-7.06-13.78-16.54-13.78-16.54l-21.27,3.86-21.26-3.86A121.92,121.92,0,0,0,107.66,58a13.44,13.44,0,0,1,7.76,1.13c5.49,2.33,9.06,9.18,10.71,13.08a21.17,21.17,0,0,1,4.6-3.66c3.54-1.68,5.84-3,7.91-3.12,2.08.13,4.38,1.44,7.92,3.12,1.48.7,3.76,2.76,6,5.12,1.34-3.59,5-10.42,13.07-10.42A45.58,45.58,0,0,1,173.69,63.9Z"/><path class="cls-4" d="M111.88,133.73a30.68,30.68,0,0,0,.66-5.82l-2.42.32s0-2-2.56-4.32a3.5,3.5,0,0,0-4.49-.17c-2.23,2.78-7.77,8-9.64,10.38-2.35,2.94-2.55,4.32,2,4.32S111.29,135.1,111.88,133.73Z"/><path class="cls-4" d="M183.85,134.12c-1.95-2.44-7.94-8.12-9.93-10.77a4.4,4.4,0,0,0-2,1,8,8,0,0,0-2.75,4.51l-4.53-2.08a40.76,40.76,0,0,0,.73,7c.59,1.37,12,4.71,16.49,4.71S186.21,137.06,183.85,134.12Z"/><path class="cls-4" d="M57.44,113.05H1.9a1.9,1.9,0,1,1,0-3.79H57.44a1.9,1.9,0,0,1,0,3.79Z"/><path class="cls-4" d="M50.55,82.69h-3.7c-1.87,0-3.39,11.61-3.39,25.93s1.52,25.92,3.39,25.92h3.7Z"/><path class="cls-5" d="M56.54,73.53h-5C49,73.53,47,89.24,47,108.62s2,35.09,4.58,35.09h5Z"/><ellipse class="cls-4" cx="56.54" cy="108.62" rx="4.58" ry="35.09"/><path class="cls-4" d="M278.14,113.05h-50.4a1.9,1.9,0,1,1,0-3.79h50.4a1.9,1.9,0,1,1,0,3.79Z"/><path class="cls-4" d="M233.3,82.69H237c1.87,0,3.38,11.61,3.38,25.93s-1.51,25.92-3.38,25.92h-3.7Z"/><path class="cls-5" d="M227.3,73.53h5c2.53,0,4.59,15.71,4.59,35.09s-2.06,35.09-4.59,35.09h-5Z"/><path class="cls-4" d="M222.72,108.62c0,19.38,2.05,35.09,4.58,35.09s4.59-15.71,4.59-35.09-2.06-35.09-4.59-35.09S222.72,89.24,222.72,108.62Z"/><path class="cls-4" d="M90,113.05H57.44a1.9,1.9,0,1,1,0-3.79H90a1.9,1.9,0,1,1,0,3.79Z"/><path class="cls-6" d="M98.14,33S91.66,60.9,90.29,66.2s-4.51,23.17-4.51,28.86-2.16,12.17-2.36,14.13.78,5.89,2,6.28,6.68.2,7.27.59,2,1.18,2.94.2,1.77-3.73,2.55-4.32,2.55-3,1.38-4.91-4.72-3.73-5.3-5.1,9-27.48,9-31,1.76-12,1.76-12l4.71-15.31S99.91,35.19,98.14,33Z"/><path class="cls-4" d="M227.74,113.05H190a1.9,1.9,0,1,1,0-3.79h37.73a1.9,1.9,0,1,1,0,3.79Z"/><path class="cls-6" d="M181.59,33s6.48,27.87,7.85,33.17S194,89.37,194,95.06s2.16,12.17,2.35,14.13-.78,5.89-2,6.28-6.67.2-7.26.59-2,1.18-3,.2-1.76-3.73-2.55-4.32-2.55-3-1.37-4.91,4.71-3.73,5.3-5.1-9-27.48-9-31-1.77-12-1.77-12L170,43.63S179.82,35.19,181.59,33Z"/><path class="cls-7" d="M181.59,33c-.06.07-.13.16-.21.24-.57-3.08-5.51-7.56-13.16-11.63C159,16.74,146,13.2,138.77,13.79a155.63,155.63,0,0,0-22,5.69C106.19,23.21,98,30.87,98.14,33h0S95.31,45.23,93,55a21.22,21.22,0,0,0,5.35,2,26.63,26.63,0,0,0,7.08.62l4.12-13.38c1.2,1,2.29,1.87,3.13,2.55,4.12,3.34,7.85,9.62,21.2,12.95s25.32-6.28,27.67-8.24a60.53,60.53,0,0,0,6.09-6.67s1.4-.81,3.3-2l-.92.8,4.3,14a26.6,26.6,0,0,0,7.08-.62,21.22,21.22,0,0,0,5.35-2C184.43,45.23,181.59,33,181.59,33Z"/><path class="cls-6" d="M145.45,4.17S143.68-.54,137.6.05,129,4.57,128.37,7.9s-.78,17.67.59,19.83,6.48,11.19,10,11.38,9.23-11,9.23-13.15-.2-11.19-.2-13.74S147.61,6.14,145.45,4.17Z"/><path class="cls-6" d="M128.17,14s-.78-3.14-2-.79S125,18.5,126,19.88A11.91,11.91,0,0,0,128,22Z"/><path class="cls-6" d="M148.07,14s.79-3.14,2-.79,1.17,5.3.19,6.68a11.91,11.91,0,0,1-2,2.16Z"/><path class="cls-4" d="M148,12.22c0-2.55-.39-6.08-2.55-8,0,0-1.77-4.71-7.85-4.12S129,4.57,128.37,7.9a77,77,0,0,0-.44,10.58,1.56,1.56,0,0,0,1.23-1.16c.19-1.37.78-5.3.78-5.3a13.7,13.7,0,0,0,8.64,2.75c5.1-.19,7.06-2.75,7.06-2.75s.2,6.48,1,7.27a9.49,9.49,0,0,0,1.49,1.12C148.06,17.23,148,13.67,148,12.22Z"/><path class="cls-4" d="M184.51,113.05H96.38a1.9,1.9,0,1,1,0-3.79h88.13a1.9,1.9,0,1,1,0,3.79Z"/></g></g></svg>